name C:\Users\u0101727\Documents\MyRepositories\paper-ad\predictivesimulations_2d/Results/PredSim_2D/IK_c22.mot
datacolumns 11
datarows 17
range 0.63316929 0.78666488
endheader
time	pelvis_tilt	pelvis_tx	pelvis_ty	hip_flexion_l	hip_flexion_r	knee_angle_l	knee_angle_r	ankle_angle_l	ankle_angle_r	lumbar_extension	
          0.63316929	        -15.05835324	          0.85494172	          0.89988789	         25.70048477	         11.37560318	        -10.65726700	        -40.88555707	          8.50184477	         -0.30545704	         10.31092310	
          0.64276277	        -15.07543402	          0.86691406	          0.90132510	         24.78170543	         12.64846993	        -10.41027615	        -41.78206051	          8.60457611	          0.67084786	         10.27256464	
          0.65235624	        -15.09003489	          0.87883059	          0.90251868	         23.84763583	         13.95377119	        -10.13841902	        -42.57069489	          8.74805004	          1.72706738	         10.23022130	
          0.66194971	        -15.10214122	          0.89069893	          0.90347191	         22.90270726	         15.28652437	         -9.84949435	        -43.24324493	          8.92640639	          2.84554009	         10.18421151	
          0.67154319	        -15.11187638	          0.90252635	          0.90419540	         21.95082418	         16.64077247	         -9.55053831	        -43.79220111	          9.13318427	          4.00846900	         10.13500938	
          0.68113666	        -15.11940346	          0.91431917	          0.90470606	         20.99615656	         18.01061731	         -9.24916726	        -44.20997065	          9.36068887	          5.19800859	         10.08305178	
          0.69073014	        -15.12486356	          0.92608285	          0.90502471	         20.04327890	         19.39064162	         -8.95319468	        -44.48864259	          9.60086843	          6.39633969	         10.02867116	
          0.70032361	        -15.12840249	          0.93782340	          0.90517278	         19.09698724	         20.77432085	         -8.67099589	        -44.62129277	          9.84578319	          7.58566272	          9.97224971	
          0.70991709	        -15.13024036	          0.94954787	          0.90517053	         18.16053419	         22.15474216	         -8.40820560	        -44.60231814	         10.08810561	          8.74831133	          9.91431968	
          0.71951056	        -15.13069429	          0.96126463	          0.90503609	         17.23471974	         23.52497604	         -8.16616988	        -44.42770170	         10.32119458	          9.86692006	          9.85562979	
          0.72910403	        -15.13004672	          0.97298231	          0.90478502	         16.32097555	         24.87728725	         -7.94760907	        -44.09521139	         10.53827803	         10.92476518	          9.79689623	
          0.73869751	        -15.12854099	          0.98470924	          0.90443041	         15.42144150	         26.20357507	         -7.75617030	        -43.60414977	         10.73327759	         11.90639893	          9.73875425	
          0.74829098	        -15.12641967	          0.99645448	          0.90398292	         14.53767209	         27.49503523	         -7.59492012	        -42.95751321	         10.90155013	         12.79842793	          9.68194067	
          0.75788446	        -15.12394146	          1.00822631	          0.90345172	         13.67063478	         28.74382113	         -7.46579015	        -42.15955881	         11.04015837	         13.59063073	          9.62712492	
          0.76747793	        -15.12137095	          1.02003157	          0.90284482	         12.82117886	         29.94347851	         -7.36996870	        -41.21499172	         11.14797728	         14.27690705	          9.57482228	
          0.77707140	        -15.11894727	          1.03187648	          0.90216873	         11.99001941	         31.08838807	         -7.30910960	        -40.13042815	         11.22573918	         14.85566796	          9.52546378	
          0.78666488	        -15.11689096	          1.04376540	          0.90142882	         11.17747753	         32.17561127	         -7.28410923	        -38.91133580	         11.27624975	         15.32974051	          9.47923751	
